<svg width="164" height="38" viewBox="0 0 164 38" fill="none" xmlns="http://www.w3.org/2000/svg">
<g filter="url(#filter0_dd_13023_1588)">
<rect x="3.1" y="2.1" width="31.8" height="31.8" rx="7.9" fill="white"/>
<rect x="3.1" y="2.1" width="31.8" height="31.8" rx="7.9" fill="url(#paint0_linear_13023_1588)"/>
<rect x="3.1" y="2.1" width="31.8" height="31.8" rx="7.9" stroke="#D0D5DD" stroke-width="0.2"/>
<path d="M18.3546 13.1827C22.7105 11.4503 27.4742 12.8184 29.6373 14.9132C30.106 15.3671 30.5041 15.8275 30.845 16.2851C31.0394 15.2107 31.0552 14.1405 30.8681 13.1055C30.1847 9.32646 26.6195 7.18558 23.4233 8.29146C20.2415 9.39237 19.0005 11.5321 19.0005 11.5321C19.0005 11.5321 17.7595 9.39237 14.5777 8.29146C11.3812 7.18558 7.81603 9.32669 7.1328 13.1055C6.62842 15.8944 7.58356 18.9391 9.61033 21.6298C10.0372 21.7732 10.4847 21.8809 10.9586 21.943C13.7978 22.3163 14.8184 21.557 16.0178 21.0486C16.8142 20.7112 17.4134 21.0942 17.3843 21.3626C17.3392 21.7786 15.7693 22.4895 16.106 22.6388C17.4351 23.2284 19.0718 23.2334 20.3053 22.18C21.838 20.8712 22.4114 21.7658 22.4114 21.7658C22.4114 21.7658 21.6502 23.7076 19.3581 24.6717C17.4457 25.4761 15.4419 25.6743 13.6107 25.4683C15.19 26.5846 17.0035 27.5204 19.0005 28.1882C24.7099 26.2784 28.9276 22.1871 30.4145 17.9096C29.4072 16.9157 28.1716 16.2995 26.6988 16.0763C23.8674 15.647 22.8322 16.3862 21.6228 16.8708C20.8198 17.1926 20.2285 16.7978 20.263 16.5299C20.3161 16.1148 21.8999 15.4351 21.5661 15.279C20.249 14.6633 18.6125 14.626 17.3585 15.6548C15.8003 16.9332 15.2446 16.0274 15.2446 16.0274C15.2446 16.0274 16.0438 14.1015 18.3546 13.1827ZM17.2709 18.5051H18.3709V17.4052H19.6296V18.5051H20.7296V19.7639H19.6296V20.8638H18.3709V19.7639H17.2709V18.5051Z" fill="url(#paint1_linear_13023_1588)"/>
<path d="M17.2709 18.5052H18.3709V17.4052H19.6296V18.5052H20.7296V19.7639H19.6379C21.2597 20.5834 24.2383 21.8027 27.8177 22.3451C28.9956 20.9517 29.8813 19.4428 30.4143 17.9096C29.4069 16.9157 28.1714 16.2996 26.6986 16.0763C23.8672 15.647 22.8319 16.3863 21.6226 16.8708C20.8196 17.1926 20.2283 16.7978 20.2627 16.5299C20.3159 16.1148 21.8997 15.4351 21.5659 15.279C20.2488 14.6633 18.6123 14.626 17.3583 15.6548C15.8 16.9332 15.2444 16.0274 15.2444 16.0274C15.2444 16.0274 16.0438 14.1013 18.3543 13.1823C22.7103 11.4499 27.474 12.818 29.637 14.9128C30.1058 15.3666 30.5038 15.8271 30.8447 16.2847C31.0392 15.2102 31.055 14.14 30.8679 13.105C30.1844 9.326 26.6192 7.18512 23.423 8.291C20.2412 9.39191 19.0002 11.5316 19.0002 11.5316C19.0002 11.5316 17.7592 9.39191 14.5774 8.291C12.752 7.65927 10.8067 8.0883 9.34621 9.27521C10.0323 10.7442 10.836 12.1168 13.1255 14.8773C14.9869 17.1222 17.2709 18.5052 17.2709 18.5052Z" fill="url(#paint2_linear_13023_1588)"/>
<path opacity="0.31" d="M27.2769 9.64942C24.2711 8.13933 21.169 10.489 20.185 11.7298C21.882 11.3724 23.3668 11.189 25.2457 11.5838C28.0251 12.1678 29.0653 13.1714 30.3063 14.6541C30.0871 11.9068 28.3518 10.1895 27.2769 9.64942Z" fill="url(#paint3_linear_13023_1588)"/>
</g>
<path d="M55.128 28.288C53.848 28.288 52.664 28.056 51.576 27.592C50.504 27.128 49.56 26.48 48.744 25.648C47.944 24.816 47.32 23.84 46.872 22.72C46.424 21.6 46.2 20.376 46.2 19.048C46.2 17.72 46.416 16.496 46.848 15.376C47.296 14.24 47.92 13.264 48.72 12.448C49.536 11.616 50.488 10.976 51.576 10.528C52.664 10.064 53.848 9.832 55.128 9.832C56.408 9.832 57.552 10.048 58.56 10.48C59.584 10.912 60.448 11.488 61.152 12.208C61.856 12.912 62.36 13.688 62.664 14.536L59.736 15.904C59.4 15.008 58.832 14.272 58.032 13.696C57.232 13.104 56.264 12.808 55.128 12.808C54.008 12.808 53.016 13.072 52.152 13.6C51.304 14.128 50.64 14.856 50.16 15.784C49.696 16.712 49.464 17.8 49.464 19.048C49.464 20.296 49.696 21.392 50.16 22.336C50.64 23.264 51.304 23.992 52.152 24.52C53.016 25.048 54.008 25.312 55.128 25.312C56.264 25.312 57.232 25.024 58.032 24.448C58.832 23.856 59.4 23.112 59.736 22.216L62.664 23.584C62.36 24.432 61.856 25.216 61.152 25.936C60.448 26.64 59.584 27.208 58.56 27.64C57.552 28.072 56.408 28.288 55.128 28.288ZM68.7756 28.288C67.8636 28.288 67.0716 28.136 66.3996 27.832C65.7276 27.528 65.2076 27.096 64.8396 26.536C64.4716 25.96 64.2876 25.296 64.2876 24.544C64.2876 23.824 64.4476 23.184 64.7676 22.624C65.0876 22.048 65.5836 21.568 66.2556 21.184C66.9276 20.8 67.7756 20.528 68.7996 20.368L73.0716 19.672V22.072L69.3996 22.696C68.7756 22.808 68.3116 23.008 68.0076 23.296C67.7036 23.584 67.5516 23.96 67.5516 24.424C67.5516 24.872 67.7196 25.232 68.0556 25.504C68.4076 25.76 68.8396 25.888 69.3516 25.888C70.0076 25.888 70.5836 25.752 71.0796 25.48C71.5916 25.192 71.9836 24.8 72.2556 24.304C72.5436 23.808 72.6876 23.264 72.6876 22.672V19.312C72.6876 18.752 72.4636 18.288 72.0156 17.92C71.5836 17.536 71.0076 17.344 70.2876 17.344C69.6156 17.344 69.0156 17.528 68.4876 17.896C67.9756 18.248 67.5996 18.72 67.3596 19.312L64.7916 18.064C65.0476 17.376 65.4476 16.784 65.9916 16.288C66.5516 15.776 67.2076 15.376 67.9596 15.088C68.7116 14.8 69.5276 14.656 70.4076 14.656C71.4796 14.656 72.4236 14.856 73.2396 15.256C74.0556 15.64 74.6876 16.184 75.1356 16.888C75.5996 17.576 75.8316 18.384 75.8316 19.312V28H72.8556V25.768L73.5276 25.72C73.1916 26.28 72.7916 26.752 72.3276 27.136C71.8636 27.504 71.3356 27.792 70.7436 28C70.1516 28.192 69.4956 28.288 68.7756 28.288ZM78.7374 28V14.944H81.6894V17.848L81.4494 17.416C81.7534 16.44 82.2254 15.76 82.8654 15.376C83.5214 14.992 84.3054 14.8 85.2174 14.8H85.9854V17.584H84.8574C83.9614 17.584 83.2414 17.864 82.6974 18.424C82.1534 18.968 81.8814 19.736 81.8814 20.728V28H78.7374ZM93.906 28.288C92.562 28.288 91.386 27.984 90.378 27.376C89.37 26.768 88.586 25.944 88.026 24.904C87.466 23.864 87.186 22.712 87.186 21.448C87.186 20.136 87.466 18.976 88.026 17.968C88.602 16.944 89.378 16.136 90.354 15.544C91.346 14.952 92.45 14.656 93.666 14.656C94.69 14.656 95.586 14.824 96.354 15.16C97.138 15.496 97.802 15.96 98.346 16.552C98.89 17.144 99.306 17.824 99.594 18.592C99.882 19.344 100.026 20.16 100.026 21.04C100.026 21.264 100.01 21.496 99.978 21.736C99.962 21.976 99.922 22.184 99.858 22.36H89.778V19.96H98.082L96.594 21.088C96.738 20.352 96.698 19.696 96.474 19.12C96.266 18.544 95.914 18.088 95.418 17.752C94.938 17.416 94.354 17.248 93.666 17.248C93.01 17.248 92.426 17.416 91.914 17.752C91.402 18.072 91.01 18.552 90.738 19.192C90.482 19.816 90.386 20.576 90.45 21.472C90.386 22.272 90.49 22.984 90.762 23.608C91.05 24.216 91.466 24.688 92.01 25.024C92.57 25.36 93.21 25.528 93.93 25.528C94.65 25.528 95.258 25.376 95.754 25.072C96.266 24.768 96.666 24.36 96.954 23.848L99.498 25.096C99.242 25.72 98.842 26.272 98.298 26.752C97.754 27.232 97.106 27.608 96.354 27.88C95.618 28.152 94.802 28.288 93.906 28.288ZM102.673 28V10.12H114.601V13H105.937V17.944H113.521V20.824H105.937V28H102.673ZM116.472 28V9.832H119.616V28H116.472ZM128.903 28.288C127.623 28.288 126.455 27.992 125.399 27.4C124.359 26.808 123.527 26 122.903 24.976C122.295 23.952 121.991 22.784 121.991 21.472C121.991 20.16 122.295 18.992 122.903 17.968C123.527 16.944 124.359 16.136 125.399 15.544C126.439 14.952 127.607 14.656 128.903 14.656C130.183 14.656 131.343 14.952 132.383 15.544C133.423 16.136 134.247 16.944 134.855 17.968C135.479 18.976 135.791 20.144 135.791 21.472C135.791 22.784 135.479 23.952 134.855 24.976C134.231 26 133.399 26.808 132.359 27.4C131.319 27.992 130.167 28.288 128.903 28.288ZM128.903 25.408C129.607 25.408 130.223 25.24 130.751 24.904C131.295 24.568 131.719 24.104 132.023 23.512C132.343 22.904 132.503 22.224 132.503 21.472C132.503 20.704 132.343 20.032 132.023 19.456C131.719 18.864 131.295 18.4 130.751 18.064C130.223 17.712 129.607 17.536 128.903 17.536C128.183 17.536 127.551 17.712 127.007 18.064C126.463 18.4 126.031 18.864 125.711 19.456C125.407 20.032 125.255 20.704 125.255 21.472C125.255 22.224 125.407 22.904 125.711 23.512C126.031 24.104 126.463 24.568 127.007 24.904C127.551 25.24 128.183 25.408 128.903 25.408ZM141.229 28L136.741 14.944H140.053L143.341 24.856L142.189 24.832L145.693 14.944H148.477L151.957 24.832L150.805 24.856L154.093 14.944H157.405L152.917 28H150.109L146.557 17.656H147.613L144.013 28H141.229Z" fill="white"/>
<defs>
<filter id="filter0_dd_13023_1588" x="0" y="0" width="38" height="38" filterUnits="userSpaceOnUse" color-interpolation-filters="sRGB">
<feFlood flood-opacity="0" result="BackgroundImageFix"/>
<feColorMatrix in="SourceAlpha" type="matrix" values="0 0 0 0 0 0 0 0 0 0 0 0 0 0 0 0 0 0 127 0" result="hardAlpha"/>
<feOffset dy="1"/>
<feGaussianBlur stdDeviation="1"/>
<feColorMatrix type="matrix" values="0 0 0 0 0.0627451 0 0 0 0 0.0941176 0 0 0 0 0.156863 0 0 0 0.06 0"/>
<feBlend mode="normal" in2="BackgroundImageFix" result="effect1_dropShadow_13023_1588"/>
<feColorMatrix in="SourceAlpha" type="matrix" values="0 0 0 0 0 0 0 0 0 0 0 0 0 0 0 0 0 0 127 0" result="hardAlpha"/>
<feOffset dy="1"/>
<feGaussianBlur stdDeviation="1.5"/>
<feColorMatrix type="matrix" values="0 0 0 0 0.0627451 0 0 0 0 0.0941176 0 0 0 0 0.156863 0 0 0 0.1 0"/>
<feBlend mode="normal" in2="effect1_dropShadow_13023_1588" result="effect2_dropShadow_13023_1588"/>
<feBlend mode="normal" in="SourceGraphic" in2="effect2_dropShadow_13023_1588" result="shape"/>
</filter>
<linearGradient id="paint0_linear_13023_1588" x1="19" y1="2" x2="19" y2="34" gradientUnits="userSpaceOnUse">
<stop stop-color="white"/>
<stop offset="1" stop-color="#D0D5DD"/>
</linearGradient>
<linearGradient id="paint1_linear_13023_1588" x1="10.1989" y1="24.2137" x2="27.8347" y2="6.57788" gradientUnits="userSpaceOnUse">
<stop stop-color="#0076C1"/>
<stop offset="0.0737" stop-color="#0B82C6"/>
<stop offset="0.2766" stop-color="#269ED3"/>
<stop offset="0.4546" stop-color="#36AFDA"/>
<stop offset="0.587" stop-color="#3CB5DD"/>
</linearGradient>
<linearGradient id="paint2_linear_13023_1588" x1="10.1388" y1="24.2537" x2="27.8274" y2="6.56509" gradientUnits="userSpaceOnUse">
<stop stop-color="#00A482"/>
<stop offset="1" stop-color="#79DD83"/>
</linearGradient>
<linearGradient id="paint3_linear_13023_1588" x1="24.8608" y1="13.5072" x2="28.5287" y2="10.1131" gradientUnits="userSpaceOnUse">
<stop stop-color="#00A482"/>
<stop offset="1" stop-color="#79DD83"/>
</linearGradient>
</defs>
</svg>
