<svg xmlns:dc="http://purl.org/dc/elements/1.1/" xmlns:cc="http://creativecommons.org/ns#" xmlns:rdf="http://www.w3.org/1999/02/22-rdf-syntax-ns#" xmlns:svg="http://www.w3.org/2000/svg" xmlns="http://www.w3.org/2000/svg" xmlns:sodipodi="http://sodipodi.sourceforge.net/DTD/sodipodi-0.dtd" xmlns:inkscape="http://www.inkscape.org/namespaces/inkscape" version="1.1" x="0px" y="0px" viewBox="0 0 100 125"><g transform="translate(0,-952.36218)"><path d="m 37,967.36216 c -2.1814,0 -4,1.8186 -4,4 l 0,6 -15,0 c -6.0594,0 -11.0000003,4.9406 -11.0000003,11 l 0,38.00004 c 0,6.0594 4.9406003,11 11.0000003,11 l 64,0 c 6.0594,0 11,-4.9406 11,-11 l 0,-38.00004 c 0,-6.0594 -4.9408,-11.05467 -11,-11 l -15,0 0,-6 c 0,-2.1814 -1.8186,-4 -4,-4 z m 0,4 26,0 0,6 -26,0 z m -19,10 64,0 c 3.9126,0 7,3.0874 7,7 l 0,7.84382 c -8.1957,4.64922 -19.1292,7.85102 -31.375,8.81252 -1.0093,-3.2639 -4.0442,-5.6562 -7.625,-5.6562 -3.5808,0 -6.6156,2.3923 -7.625,5.6562 -12.2612,-0.9591 -23.1732,-4.1557 -31.375,-8.81252 l 0,-7.84382 c 0,-3.9126 3.0874,-7 7,-7 z m -7,19.40634 c 8.5571,4.4315 19.3172,7.371 31.1875,8.2813 0.7865,3.5874 4.0007,6.3125 7.8125,6.3125 3.8119,0 7.0261,-2.7251 7.8125,-6.3125 11.8785,-0.908 22.6253,-3.8479 31.1875,-8.2813 l 0,25.5937 c 0,3.9126 -3.0874,7 -7,7 l -64,0 c -3.9126,0 -7,-3.0874 -7,-7 z m 39,2.5938 c 2.2328,0 4,1.7672 4,4 0,2.2328 -1.7672,4 -4,4 -2.2328,0 -4,-1.7672 -4,-4 0,-2.2328 1.7672,-4 4,-4 z" style="text-indent:0;text-transform:none;direction:ltr;block-progression:tb;baseline-shift:baseline;color:#cde9df;enable-background:accumulate;" fill="#cde9df" fill-opacity="1" marker="none" visibility="visible" display="inline" overflow="visible"/></g><text x="0" y="115" fill="#cde9df" font-size="5px" font-weight="bold" font-family="'Helvetica Neue', Helvetica, Arial-Unicode, Arial, Sans-serif">Created by iconsphere</text><text x="0" y="120" fill="#cde9df" font-size="5px" font-weight="bold" font-family="'Helvetica Neue', Helvetica, Arial-Unicode, Arial, Sans-serif">from the Noun Project</text></svg>